<svg viewBox="0 0 1000 1000" xmlns="http://www.w3.org/2000/svg" xml:space="preserve" style="fill-rule:evenodd;clip-rule:evenodd;stroke-linejoin:round;stroke-miterlimit:2"><circle cx="500.303" cy="501.365" r="479.146" style="fill:#7dd3fc" transform="translate(-.303 -1.365)"/><path d="M455.8 774.95c-.067.205-.145.405-.21.61-16.31 51.489 12.208 106.45 63.697 122.76 51.489 16.31 106.45-12.209 122.76-63.697.065-.206.116-.414.179-.62L455.8 774.95Zm284.039 15.708-36.117-152.179 57.526-150.698c38.796-101.631-1.243-213.975-89.976-269.72l17.715-46.406c8.658-22.685-2.711-48.096-25.398-56.757-22.686-8.66-48.096 2.712-56.756 25.396l-17.715 46.407c-103.309-17.561-208.026 39.525-246.821 141.153L284.77 478.552l-128.337 89.402a44.457 44.457 0 0 0-18.717 41.888 44.456 44.456 0 0 0 28.275 36.13l514.73 196.491a44.464 44.464 0 0 0 59.118-51.805Z" style="fill:#0ea5e9;fill-rule:nonzero" transform="translate(326.576 324.748) scale(.34745)"/><path d="M655.256 122.288c-208.255-85.6-447.346 14.207-532.948 222.467-85.593 208.238 14.187 447.36 222.444 532.961 208.258 85.601 447.341-14.237 532.934-222.475 85.602-208.26-14.172-447.352-222.43-532.953ZM468.58 340.595a163.009 163.009 0 0 1 31.42-3.042c11.557 0 22.833 1.21 33.701 3.507l17.352-42.216-44.584-106.853c-6.65-15.905.855-34.164 16.77-40.801 15.898-6.652 34.157.853 40.801 16.77l20.559 49.269 18.737-45.584c6.552-15.94 24.773-23.565 40.712-17.013 15.94 6.551 23.554 24.799 17.004 40.736l-19.568 47.607 52.108-21.767c15.905-6.649 34.168.858 40.827 16.782 6.608 15.895-.897 34.153-16.77 40.801l-109.714 45.798-16.826 40.935a163.526 163.526 0 0 1 46.591 48.303l52.169-21.78 44.603-108.515c6.552-15.939 24.777-23.535 40.723-16.981 15.919 6.544 23.528 24.774 16.982 40.7l-20.879 50.797 31.244-13.042c15.918-6.644 34.183.864 40.814 16.776 6.629 15.919-.871 34.165-16.77 40.801l-31.263 13.049 50.81 20.885c15.933 6.549 23.542 24.779 16.99 40.718-6.546 15.927-24.789 23.53-40.709 16.987l-108.525-44.608-53.837 22.469A163.1 163.1 0 0 1 662.447 500c0 13.108-1.556 25.855-4.494 38.07l55.845 22.954 108.279-45.187c15.901-6.643 34.154.86 40.801 16.771 6.635 15.901-.869 34.158-16.771 40.801l-50.693 21.159 31.339 12.882c15.933 6.549 23.517 24.766 16.966 40.705-6.544 15.92-24.753 23.553-40.686 17.004l-31.34-12.881 21.101 50.687c6.602 15.9-.905 34.166-16.776 40.814-7.97 3.325-16.524 3.086-23.886.06-7.391-3.037-13.626-8.878-16.939-16.841l-45.19-108.265-58.135-23.895a163.595 163.595 0 0 1-40.702 39.6l24.423 58.499 108.527 44.608c15.933 6.549 23.537 24.792 16.994 40.712-6.556 15.948-24.785 23.555-40.718 17.006l-50.811-20.885 13.067 31.255c6.636 15.899-.871 34.164-16.771 40.801-7.949 3.318-16.521 3.087-23.886.06a31.11 31.11 0 0 1-16.938-16.841l-13.04-31.243-20.885 50.812c-6.548 15.93-24.779 23.542-40.712 16.993-15.946-6.554-23.536-24.794-16.993-40.712l44.61-108.53-24.227-58.055A162.84 162.84 0 0 1 500 662.447c-10.203 0-20.187-.943-29.864-2.745l-23.505 57.184 45.185 108.278c6.673 15.884-.835 34.149-16.761 40.777a31.064 31.064 0 0 1-23.891.104 31.006 31.006 0 0 1-16.912-16.876l-21.17-50.667-12.877 31.327c-6.543 15.92-24.794 23.536-40.72 16.989-15.937-6.55-23.528-24.788-16.984-40.708l12.876-31.327-50.683 21.134a31.056 31.056 0 0 1-23.884.107c-7.424-3.051-13.622-8.907-16.919-16.879-6.656-15.907.852-34.172 16.761-40.777l108.272-45.202 23.235-56.527a163.5 163.5 0 0 1-44.521-42.491l-47.21 19.711-44.005 107.059c-6.554 15.946-24.804 23.547-40.73 17.001-15.953-6.557-23.536-24.776-16.981-40.722l20.292-49.37-45.486 18.979a31.133 31.133 0 0 1-23.882.063 31.196 31.196 0 0 1-16.919-16.833c-6.65-15.905.857-34.168 16.781-40.828l47.489-19.811-52.221-21.465c-15.946-6.554-23.555-24.784-17.012-40.704 6.555-15.946 24.782-23.556 40.73-17l109.936 45.187 43.439-18.133A162.682 162.682 0 0 1 337.553 500c0-8.625.674-17.094 1.97-25.344l-43.814-18.009-106.827 44.585c-7.961 3.344-16.53 3.099-23.887.075-7.417-3.048-13.627-8.878-16.93-16.852-6.636-15.9.872-34.165 16.771-40.801l49.258-20.553-45.562-18.728c-15.939-6.552-23.524-24.804-16.986-40.709 6.552-15.942 24.781-23.549 40.707-17.002l47.62 19.573-21.768-52.135c-6.642-15.886.866-34.151 16.77-40.801 15.919-6.628 34.165.872 40.814 16.776l45.785 109.703 39.482 16.229a163.457 163.457 0 0 1 49.862-51.774l-16.994-40.703-107.053-44.002c-15.939-6.552-23.548-24.782-16.997-40.721 6.555-15.946 24.779-23.542 40.719-16.99l49.35 20.284-18.947-45.44c-6.651-15.921.849-34.166 16.77-40.801 15.918-6.644 34.164.855 40.795 16.768l19.835 47.491 21.474-52.243c6.546-15.926 24.753-23.553 40.703-16.997 15.939 6.552 23.541 24.801 17 40.715l-45.194 109.95 16.301 39.051Z" style="fill:#bae6fd;fill-rule:nonzero"/></svg>